<svg width="67" height="57" viewBox="0 0 67 57" fill="none" xmlns="http://www.w3.org/2000/svg">
<path d="M28.2502 12.8331L42.2502 23.3331V44.3331H14.2502V23.3331L28.2502 12.8331ZM28.2502 6.99976L9.5835 20.9998V48.9998H46.9168V20.9998L28.2502 6.99976ZM27.0835 22.1664V29.1664H25.9168V22.1664H23.5835V29.1664H22.4168V22.1664H20.0835V29.1664C20.0835 31.1031 21.6468 32.6664 23.5835 32.6664V41.9998H25.9168V32.6664C27.8535 32.6664 29.4168 31.1031 29.4168 29.1664V22.1664H27.0835ZM30.5835 26.8331V33.8331H32.9168V41.9998H35.2502V22.1664C32.6835 22.1664 30.5835 24.2664 30.5835 26.8331Z" fill="black" style="fill:black;fill-opacity:1;"/>
<circle cx="41.75" cy="32" r="25" fill="#3D5BA5" fill-opacity="0.3" style="fill:#3D5BA5;fill:color(display-p3 0.2392 0.3569 0.6471);fill-opacity:0.3;"/>
</svg>
