<svg width="67" height="57" viewBox="0 0 67 57" fill="none" xmlns="http://www.w3.org/2000/svg">
<path d="M30.3268 25.8997C26.1735 24.523 24.1668 23.6597 24.1668 21.4663C24.1668 19.0863 26.7568 18.223 28.3902 18.223C31.4468 18.223 32.5668 20.533 32.8235 21.3497L36.5102 19.7863C36.1602 18.7363 34.5968 15.3063 30.5835 14.5597V11.6663H25.9168V14.6063C20.1302 15.913 20.1068 21.2797 20.1068 21.513C20.1068 26.8097 25.3568 28.303 27.9235 29.2363C31.6102 30.543 33.2435 31.733 33.2435 33.973C33.2435 36.6097 30.7935 37.7297 28.6235 37.7297C24.3768 37.7297 23.1635 33.3663 23.0235 32.853L19.1502 34.4163C20.6202 39.5263 24.4702 40.903 25.9168 41.323V44.333H30.5835V41.4397C31.5168 41.2297 37.3502 40.063 37.3502 33.9263C37.3502 30.683 35.9268 27.8363 30.3268 25.8997ZM7.25016 48.9997H2.5835V34.9997H16.5835V39.6663H10.7968C14.5535 45.2897 20.9702 48.9997 28.2502 48.9997C39.8468 48.9997 49.2502 39.5963 49.2502 27.9997H53.9168C53.9168 42.1863 42.4368 53.6663 28.2502 53.6663C19.5702 53.6663 11.8935 49.3497 7.25016 42.7697V48.9997ZM2.5835 27.9997C2.5835 13.813 14.0635 2.33301 28.2502 2.33301C36.9302 2.33301 44.6068 6.64968 49.2502 13.2297V6.99967H53.9168V20.9997H39.9168V16.333H45.7035C41.9468 10.7097 35.5302 6.99967 28.2502 6.99967C16.6535 6.99967 7.25016 16.403 7.25016 27.9997H2.5835Z" fill="black" style="fill:black;fill-opacity:1;"/>
<circle cx="41.75" cy="32" r="25" fill="#3D5BA5" fill-opacity="0.3" style="fill:#3D5BA5;fill:color(display-p3 0.2392 0.3569 0.6471);fill-opacity:0.3;"/>
</svg>
