<svg width="67" height="57" viewBox="0 0 67 57" fill="none" xmlns="http://www.w3.org/2000/svg">
<path d="M35.2498 24.4997C35.2498 23.2163 36.2998 22.1663 37.5832 22.1663C38.8665 22.1663 39.9165 23.2163 39.9165 24.4997C39.9165 25.783 38.8665 26.833 37.5832 26.833C36.2998 26.833 35.2498 25.783 35.2498 24.4997ZM18.9165 22.1663H30.5832V17.4997H18.9165V22.1663ZM51.5832 18.6663V34.9297L45.0032 37.123L41.0832 50.1663H28.2498V45.4997H23.5832V50.1663H10.7498C10.7498 50.1663 4.9165 30.4263 4.9165 23.333C4.9165 16.2397 10.6565 10.4997 17.7498 10.4997H29.4165C31.5398 7.67634 34.9232 5.83301 38.7498 5.83301C40.6865 5.83301 42.2498 7.39634 42.2498 9.33301C42.2498 9.82301 42.1565 10.2663 41.9698 10.6863C41.6432 11.4797 41.3632 12.3897 41.2232 13.3697L46.5198 18.6663H51.5832ZM46.9165 23.333H44.5832L36.4165 15.1663C36.4165 13.6497 36.6265 12.1563 37.0232 10.7097C34.7598 11.293 32.9165 12.973 32.1465 15.1663H17.7498C13.2465 15.1663 9.58317 18.8297 9.58317 23.333C9.58317 27.7197 12.4298 38.8497 14.2732 45.4997H18.9165V40.833H32.9165V45.4997H37.6065L41.2232 33.483L46.9165 31.5697V23.333Z" fill="black" style="fill:black;fill-opacity:1;"/>
<circle cx="41.75" cy="32" r="25" fill="#3D5BA5" fill-opacity="0.3" style="fill:#3D5BA5;fill:color(display-p3 0.2392 0.3569 0.6471);fill-opacity:0.3;"/>
</svg>
